<svg width="27" height="27" viewBox="0 0 27 27" fill="none" xmlns="http://www.w3.org/2000/svg">
<path d="M25.7727 14.7273C25.4045 14.7273 25.1591 14.9728 25.1591 15.3409V23.3182C25.1591 23.6864 24.9136 23.9318 24.5455 23.9318H2.4545C2.08631 23.9318 1.84088 23.6863 1.84088 23.3182V15.3409C1.84088 14.9727 1.5954 14.7273 1.22726 14.7273C0.859126 14.7273 0.613647 14.9728 0.613647 15.3409V23.3182C0.613647 24.3614 1.41136 25.1591 2.45455 25.1591H24.5455C25.5886 25.1591 26.3864 24.3614 26.3864 23.3182V15.3409C26.3864 14.9727 26.1409 14.7273 25.7727 14.7273Z" fill="white"/>
<path d="M25.1591 6.13638H1.8409C0.797713 6.13638 0 6.9341 0 7.97729V11.9046C0 12.7636 0.613617 13.5 1.41138 13.6841L11.0455 15.8318V17.7954C11.0455 18.1636 11.291 18.409 11.6591 18.409H15.3409C15.7091 18.409 15.9545 18.1636 15.9545 17.7954V15.8318L25.5886 13.6841C26.3864 13.5 27 12.7636 27 11.9045V7.97723C27 6.9341 26.2023 6.13638 25.1591 6.13638ZM14.7273 17.1818H12.2728V14.7273H14.7273V17.1818ZM25.7727 11.9045C25.7727 12.2113 25.5886 12.4568 25.2818 12.5181L15.9545 14.6045V14.1136C15.9545 13.7454 15.709 13.5 15.3409 13.5H11.6591C11.2909 13.5 11.0455 13.7455 11.0455 14.1136V14.6045L1.71819 12.5182C1.41138 12.4568 1.22729 12.2114 1.22729 11.9046V7.97729C1.22729 7.6091 1.47277 7.36367 1.8409 7.36367H25.1591C25.5273 7.36367 25.7727 7.60915 25.7727 7.97729V11.9045Z" fill="white"/>
<path d="M16.5682 1.84091H10.4318C9.38859 1.84091 8.59088 2.63862 8.59088 3.68182V4.29543C8.59088 4.66363 8.83636 4.90905 9.2045 4.90905C9.57264 4.90905 9.81812 4.66357 9.81812 4.29543V3.68182C9.81812 3.31362 10.0636 3.0682 10.4317 3.0682H16.5681C16.9363 3.0682 17.1817 3.31368 17.1817 3.68182V4.29543C17.1817 4.66363 17.4272 4.90905 17.7954 4.90905C18.1635 4.90905 18.409 4.66357 18.409 4.29543V3.68182C18.4091 2.63862 17.6114 1.84091 16.5682 1.84091Z" fill="white"/>
</svg>
