<svg width="34" height="34" viewBox="0 0 34 34" fill="none" xmlns="http://www.w3.org/2000/svg">
<g clip-path="url(#clip0_2_84)">
<path d="M15.7095 20.3231C16.108 20.5504 16.5549 20.6641 17.0018 20.6641C17.4487 20.6641 17.8955 20.5504 18.2941 20.3231C18.533 20.1868 18.6162 19.8826 18.4799 19.6437C18.3437 19.4047 18.0395 19.3215 17.8006 19.4578C17.3079 19.7389 16.6957 19.7389 16.203 19.4578C15.9641 19.3215 15.6599 19.4047 15.5237 19.6437C15.3873 19.8826 15.4706 20.1869 15.7095 20.3231Z" fill="white"/>
<path d="M0.497853 7.07252C0.530326 7.07252 0.563396 7.06933 0.596466 7.06269C1.29984 6.92138 1.96011 6.64924 2.55896 6.25386L10.1406 1.24779C10.3899 1.08317 10.6795 0.996179 10.9782 0.996179H20.856C20.9911 0.996179 21.101 1.10615 21.101 1.24128C21.101 2.12422 20.3828 2.84246 19.5 2.84246H18.2807C18.0056 2.84246 17.7826 3.06539 17.7826 3.34051C17.7826 3.61563 18.0056 3.83855 18.2807 3.83855H19.5C20.3048 3.83855 21.0253 3.47046 21.5021 2.89386C26.361 4.45526 30.1129 8.47315 31.3262 13.4386C31.3818 13.6662 31.5854 13.8186 31.8096 13.8186C31.8487 13.8186 31.8885 13.814 31.9282 13.8043C32.1954 13.739 32.3591 13.4694 32.2938 13.2022C31.0133 7.96162 27.084 3.71005 21.9827 2.00349C22.0569 1.76237 22.097 1.50644 22.097 1.24128C22.097 0.556838 21.5403 9.15527e-05 20.8559 9.15527e-05H10.9782C10.4838 9.15527e-05 10.0043 0.144126 9.59174 0.416523L2.01011 5.42266C1.51884 5.74699 0.977237 5.97024 0.400237 6.08612C0.130562 6.14031 -0.0440851 6.40288 0.0101021 6.67255C0.0575823 6.90909 0.265433 7.07252 0.497853 7.07252Z" fill="white"/>
<path d="M27.5859 30.2918L23.8595 32.7522C23.6102 32.9169 23.3206 33.0039 23.0219 33.0039H13.1441C13.009 33.0039 12.8991 32.8939 12.8991 32.7587C12.8991 31.8758 13.6173 31.1576 14.5001 31.1576C14.6373 31.1603 21.6514 31.1524 21.7845 31.1603C22.2645 31.1603 22.7456 30.9856 23.1283 30.6339L27.686 26.445C27.8886 26.2588 27.9018 25.9438 27.7157 25.7412C27.5296 25.5387 27.2145 25.5256 27.012 25.7116L22.4543 29.9004C22.2527 30.0856 22.0003 30.1697 21.7458 30.1615C21.5038 30.1519 21.2649 30.0538 21.0806 29.867C20.7014 29.4828 20.7021 28.8584 21.0822 28.475L26.9971 22.5091C27.8099 21.6894 28.938 21.2192 30.0922 21.2192C30.7408 21.2192 31.3926 21.3675 31.9773 21.648C32.5224 21.9095 32.8541 22.0012 33.456 22.0568C33.7295 22.0833 33.9725 21.8807 33.9978 21.6067C34.0231 21.3328 33.8216 21.0903 33.5477 21.065C33.0338 21.0259 32.7588 20.9232 32.2962 20.6982C32.5928 19.4792 32.7434 18.2227 32.7434 16.9569C32.7434 16.4958 32.7232 16.0302 32.6835 15.5732C32.6597 15.2991 32.4183 15.0961 32.1442 15.1202C31.8702 15.1439 31.6673 15.3854 31.6912 15.6594C31.7284 16.088 31.7473 16.5244 31.7473 16.9569C31.7473 18.1128 31.6137 19.2601 31.3499 20.3743C30.9381 20.2748 30.5147 20.2231 30.0922 20.2231C28.6742 20.2231 27.2882 20.8007 26.2898 21.8078L22.6588 25.4701C22.5441 25.4346 22.4278 25.4042 22.3104 25.3802L19.5207 24.8102V22.5636L20.0028 22.188C20.711 21.6362 21.2227 20.9032 21.4973 20.0791H21.8913C23.1575 20.0791 24.1876 19.0489 24.1876 17.7827V17.2187C24.1876 16.8016 24.0046 16.4273 23.7159 16.1688C24.0872 14.5216 23.8262 12.7562 22.9832 11.2763C22.0945 9.71598 20.6519 8.5989 18.9242 8.13173C18.7059 8.07124 18.4781 8.0207 18.247 7.98152C17.9758 7.9355 17.7187 8.11825 17.6728 8.38939C17.6268 8.66059 17.8094 8.91765 18.0806 8.9636C18.2782 8.99707 18.4725 9.04017 18.6611 9.09243C20.1336 9.4906 21.3612 10.4413 22.1176 11.7693C22.8142 12.9922 23.0443 14.4419 22.7725 15.8077H21.728V14.6534C21.728 14.0461 21.4118 13.5063 20.8822 13.2092C20.3527 12.9121 19.7272 12.9238 19.2091 13.2403L17.9159 14.0302C17.236 14.4455 16.4562 14.6389 15.6612 14.5898L14.2452 14.5022C13.7365 14.4705 13.2322 14.6529 12.8609 15.0017C12.6252 15.2233 12.4536 15.5028 12.3595 15.8077H11.2321C10.9603 14.4419 11.1905 12.9921 11.887 11.7693C12.6434 10.4413 13.871 9.49066 15.3466 9.09163C15.5318 9.0403 15.7257 8.99727 15.9229 8.9638C16.1941 8.91771 16.3766 8.66059 16.3305 8.38939C16.2844 8.11819 16.0274 7.9361 15.7561 7.98172C15.5256 8.0209 15.2983 8.07137 15.0835 8.13087C13.3529 8.5989 11.9103 9.71598 11.0215 11.2763C10.1786 12.7562 9.91755 14.5216 10.2889 16.1688C10.0002 16.4274 9.81721 16.8016 9.81721 17.2187V17.7827C9.81721 19.0489 10.8473 20.0791 12.1135 20.0791H12.5074C12.782 20.9032 13.2937 21.6362 14.002 22.188L14.4827 22.5625V24.8102L11.6942 25.3802C10.9901 25.524 10.3493 25.8687 9.84111 26.377C9.83162 26.3865 9.82252 26.3963 9.81382 26.4066L7.93135 28.6213C6.91686 27.8342 6.00199 26.9159 5.22132 25.8896C3.25438 23.3037 2.2148 20.2149 2.2148 16.9568C2.2148 15.8264 2.34283 14.7035 2.59524 13.6124C3.02415 13.7207 3.46648 13.7768 3.90755 13.7768C5.32558 13.7768 6.7116 13.1992 7.71002 12.1921L13.6249 6.22628C14.2649 5.58075 14.3685 4.59463 13.9356 3.83853H15.9561C16.2311 3.83853 16.4541 3.6156 16.4541 3.34048C16.4541 3.06537 16.2311 2.84244 15.9561 2.84244H12.3089C11.7982 2.8182 11.2791 2.99139 10.8715 3.36612L6.31377 7.555C6.11123 7.7412 6.09795 8.05623 6.28408 8.25877C6.47022 8.46131 6.78525 8.47452 6.98779 8.28845L11.5455 4.09957C11.747 3.91463 11.9992 3.83043 12.2534 3.83853C12.4957 3.84796 12.7347 3.94611 12.9192 4.13297C13.2984 4.5172 13.2977 5.14161 12.9176 5.52504L7.00266 11.4909C6.18992 12.3107 5.06182 12.7808 3.90755 12.7808C3.25903 12.7808 2.60719 12.6325 2.02249 12.352C1.47743 12.0905 1.14573 11.9988 0.543828 11.9432C0.270037 11.9173 0.0273232 12.1193 0.00202254 12.3933C-0.0232781 12.6672 0.178197 12.9097 0.452121 12.935C0.952357 12.9769 1.19959 13.0585 1.65095 13.2775C1.36427 14.4769 1.21864 15.7128 1.21864 16.9569C1.21864 20.4345 2.32855 23.7319 4.42844 26.4927C6.35228 29.0219 9.03966 30.9373 12.0394 31.9296C11.9514 32.1902 11.9029 32.4688 11.9029 32.7587C11.9029 33.4431 12.4597 33.9999 13.1441 33.9999H23.0218C23.5163 33.9999 23.9957 33.8558 24.4082 33.5834L28.1346 31.1229C28.3642 30.9714 28.4274 30.6624 28.2758 30.4328C28.1243 30.2035 27.8153 30.1402 27.5859 30.2918ZM15.4788 24.9375V23.2824C15.9538 23.5395 16.478 23.6681 17.0024 23.6681C17.5261 23.6681 18.0499 23.5397 18.5245 23.2832V24.9375C17.5757 25.4635 16.4277 25.4634 15.4788 24.9375ZM22.7766 16.8038C23.0053 16.8038 23.1915 16.99 23.1915 17.2188V17.7828C23.1915 18.4998 22.6082 19.0831 21.8913 19.0831H21.7066C21.7198 18.9423 21.7281 18.8003 21.7281 18.6569V16.8038H22.7766ZM12.1135 19.0832C11.3966 19.0832 10.8134 18.4999 10.8134 17.7828V17.2188C10.8134 16.9901 10.9995 16.8039 11.2283 16.8039H12.2768V18.657C12.2768 18.8004 12.2851 18.9423 12.2983 19.0832H12.1135ZM13.2728 18.657V16.3528C13.2728 16.1135 13.3689 15.8915 13.5432 15.7276C13.7041 15.5764 13.9103 15.4948 14.1289 15.4948C14.147 15.4948 14.1653 15.4953 14.1837 15.4964L15.5996 15.5841C16.5996 15.6463 17.5801 15.4027 18.4351 14.8804L19.7284 14.0904C19.9348 13.9644 20.184 13.9596 20.395 14.078C20.606 14.1963 20.732 14.4115 20.732 14.6535V18.6569C20.732 19.7376 20.2431 20.7382 19.3907 21.4022L18.361 22.2043C17.5611 22.8275 16.4437 22.8275 15.6438 22.2043L14.6142 21.4022C13.7617 20.7382 13.2728 19.7376 13.2728 18.657ZM8.7411 29.2069L10.5593 27.0677C10.9268 26.7054 11.3878 26.4595 11.8937 26.356L14.8856 25.7445C15.5391 26.1334 16.2703 26.3284 17.0017 26.3284C17.7331 26.3284 18.4643 26.1334 19.1177 25.7446L21.8359 26.2999L20.3749 27.7736C19.7348 28.4191 19.6312 29.4052 20.0641 30.1613H14.5002C13.723 30.1613 13.0249 30.505 12.5485 31.0479C11.1993 30.6231 9.91509 29.9985 8.7411 29.2069Z" fill="white"/>
<path d="M33.9901 27.3275C33.9359 27.0578 33.6737 26.8834 33.4036 26.9373C32.7003 27.0787 32.04 27.3508 31.4412 27.7462L29.5255 29.0111C29.296 29.1626 29.2328 29.4716 29.3844 29.7012C29.4801 29.8462 29.6388 29.9248 29.8005 29.9248C29.8946 29.9248 29.99 29.8981 30.0745 29.8423L31.9901 28.5774C32.4813 28.2531 33.0229 28.0299 33.5999 27.914C33.8696 27.8597 34.0443 27.5972 33.9901 27.3275Z" fill="white"/>
<path d="M24.5487 10.6814C24.2737 10.6814 24.0507 10.9043 24.0507 11.1794C24.0507 11.4546 24.2737 11.6775 24.5487 11.6775H25.4982C25.7733 11.6775 25.9963 11.4546 25.9963 11.1794C25.9963 10.9043 25.7733 10.6814 25.4982 10.6814H24.5487Z" fill="white"/>
<path d="M27.9304 10.6814C27.6554 10.6814 27.4324 10.9043 27.4324 11.1794C27.4324 11.4546 27.6554 11.6775 27.9304 11.6775H28.88C29.155 11.6775 29.378 11.4546 29.378 11.1794C29.378 10.9043 29.155 10.6814 28.88 10.6814H27.9304Z" fill="white"/>
<path d="M27.2124 9.01367C27.2124 8.73855 26.9894 8.51562 26.7144 8.51562C26.4393 8.51562 26.2163 8.73855 26.2163 9.01367V9.96327C26.2163 10.2384 26.4393 10.4613 26.7144 10.4613C26.9894 10.4613 27.2124 10.2384 27.2124 9.96327V9.01367Z" fill="white"/>
<path d="M26.7144 11.8976C26.4393 11.8976 26.2163 12.1205 26.2163 12.3957V13.3453C26.2163 13.6204 26.4393 13.8434 26.7144 13.8434C26.9894 13.8434 27.2124 13.6204 27.2124 13.3453V12.3957C27.2124 12.1205 26.9894 11.8976 26.7144 11.8976Z" fill="white"/>
<path d="M5.65027 22.1091C5.37521 22.1091 5.15222 22.332 5.15222 22.6071C5.15222 22.8823 5.37521 23.1052 5.65027 23.1052H6.5998C6.87486 23.1052 7.09785 22.8823 7.09785 22.6071C7.09785 22.332 6.87486 22.1091 6.5998 22.1091H5.65027Z" fill="white"/>
<path d="M9.03198 23.1052H9.98152C10.2566 23.1052 10.4796 22.8823 10.4796 22.6071C10.4796 22.332 10.2566 22.1091 9.98152 22.1091H9.03198C8.75693 22.1091 8.53394 22.332 8.53394 22.6071C8.53394 22.8823 8.75693 23.1052 9.03198 23.1052Z" fill="white"/>
<path d="M8.31384 20.4413C8.31384 20.1662 8.09085 19.9433 7.81579 19.9433C7.54074 19.9433 7.31775 20.1662 7.31775 20.4413V21.391C7.31775 21.6661 7.54074 21.889 7.81579 21.889C8.09085 21.889 8.31384 21.6661 8.31384 21.391V20.4413Z" fill="white"/>
<path d="M7.81579 23.3253C7.54074 23.3253 7.31775 23.5482 7.31775 23.8233V24.7729C7.31775 25.048 7.54074 25.2709 7.81579 25.2709C8.09085 25.2709 8.31384 25.048 8.31384 24.7729V23.8233C8.31384 23.5482 8.09085 23.3253 7.81579 23.3253Z" fill="white"/>
</g>
<defs>
<clipPath id="clip0_2_84">
<rect width="34" height="34" fill="white"/>
</clipPath>
</defs>
</svg>
