<svg width="476" height="87" viewBox="0 0 476 87" fill="none" xmlns="http://www.w3.org/2000/svg">
<path d="M69.8232 65.7531L82.416 4.47302L96.5266 4.47302L77.6376 85.8816H64.0327L48.4601 26.4466L32.5504 85.8816H18.8894L0 4.47302L14.1108 4.47302L26.8161 65.6413L42.4448 4.47302L54.363 4.47302L69.8232 65.7531ZM130.595 87C121.937 87 114.91 84.2976 109.513 78.8925C104.154 73.4504 101.474 66.2191 101.474 57.1985V55.521C101.474 49.4825 102.636 44.0964 104.959 39.3626C107.321 34.5912 110.619 30.8824 114.854 28.2358C119.089 25.5893 123.811 24.266 129.021 24.266C137.304 24.266 143.694 26.8939 148.191 32.1497C152.726 37.4056 154.994 44.8418 154.994 54.4589V59.9382L115.247 59.9382C115.66 64.9331 117.327 68.8843 120.251 71.7915C123.212 74.6992 126.922 76.1528 131.382 76.1528C137.641 76.1528 142.738 73.6367 146.674 68.6045L154.038 75.5937C151.602 79.2095 148.342 82.0236 144.256 84.0365C140.208 86.012 135.655 87 130.595 87ZM128.965 35.169C125.217 35.169 122.181 36.4735 119.857 39.0828C117.571 41.692 116.109 45.3265 115.472 49.9858H141.501V48.9792C141.202 44.4317 139.984 41.0025 137.847 38.6916C135.711 36.3432 132.75 35.169 128.965 35.169ZM219.026 56.2482C219.026 65.6413 216.909 73.1148 212.674 78.6689C208.476 84.2227 202.685 87 195.302 87C188.181 87 182.635 84.4466 178.662 79.3399L177.987 85.8816H165.619V0L179.28 0V31.1992C183.215 26.5771 188.519 24.266 195.19 24.266C202.611 24.266 208.439 27.0057 212.674 32.4852C216.909 37.9644 219.026 45.6245 219.026 55.4651V56.2482ZM205.366 55.0739C205.366 48.5136 204.204 43.5931 201.88 40.3129C199.556 37.0327 196.183 35.3926 191.761 35.3926C185.839 35.3926 181.679 37.9644 179.28 43.1084V68.0457C181.716 73.3014 185.914 75.9293 191.873 75.9293C196.146 75.9293 199.444 74.3449 201.767 71.1765C204.091 68.0084 205.29 63.2183 205.366 56.807V55.0739ZM290.986 15.8792L265.463 15.8792V85.8816H251.352V15.8792L226.054 15.8792V4.47302L290.986 4.47302V15.8792ZM333.599 79.9549C329.589 84.6515 323.892 87 316.509 87C309.913 87 304.909 85.0803 301.499 81.2409C298.126 77.4016 296.439 71.8474 296.439 64.5788V25.3843L310.1 25.3843V64.4112C310.1 72.0899 313.304 75.9293 319.713 75.9293C326.347 75.9293 330.826 73.5622 333.15 68.8284V25.3843L346.81 25.3843V85.8816H333.937L333.599 79.9549ZM373.402 25.3843L373.796 32.3734C378.293 26.9685 384.196 24.266 391.504 24.266C404.173 24.266 410.619 31.4787 410.845 45.9043V85.8816L397.181 85.8816V46.687C397.181 42.8476 396.339 40.0149 394.653 38.1883C393.003 36.3245 390.287 35.3926 386.501 35.3926C380.991 35.3926 376.887 37.8713 374.189 42.829V85.8816H360.528V25.3843L373.402 25.3843ZM451.603 87C442.945 87 435.918 84.2976 430.522 78.8925C425.161 73.4504 422.48 66.2191 422.48 57.1985V55.521C422.48 49.4825 423.643 44.0964 425.964 39.3626C428.329 34.5912 431.626 30.8824 435.859 28.2358C440.096 25.5893 444.817 24.266 450.026 24.266C458.31 24.266 464.701 26.8939 469.199 32.1497C473.733 37.4056 476 44.8418 476 54.4589V59.9382L436.253 59.9382C436.667 64.9331 438.333 68.8843 441.259 71.7915C444.217 74.6992 447.927 76.1528 452.387 76.1528C458.649 76.1528 463.745 73.6367 467.682 68.6045L475.044 75.5937C472.609 79.2095 469.348 82.0236 465.262 84.0365C461.216 86.012 456.663 87 451.603 87ZM449.972 35.169C446.222 35.169 443.186 36.4735 440.865 39.0828C438.579 41.692 437.115 45.3265 436.479 49.9858H462.508V48.9792C462.207 44.4317 460.99 41.0025 458.852 38.6916C456.718 36.3432 453.756 35.169 449.972 35.169Z" fill="black" fill-opacity="0.37"/>
</svg>
