<svg width="32" height="32" viewBox="0 0 32 32" fill="none" xmlns="http://www.w3.org/2000/svg">
<g clip-path="url(#clip0_2_53)">
<path d="M22.0272 17.8567L15.5041 24.9143L13.9921 23.2545C13.9376 23.1947 13.8718 23.1462 13.7986 23.1118C13.7254 23.0774 13.6461 23.0578 13.5653 23.054C13.4844 23.0503 13.4037 23.0625 13.3276 23.0899C13.2515 23.1174 13.1815 23.1596 13.1217 23.2141C13.0619 23.2686 13.0134 23.3343 12.979 23.4075C12.9446 23.4807 12.925 23.56 12.9213 23.6409C12.9175 23.7217 12.9297 23.8024 12.9572 23.8785C12.9846 23.9546 13.0268 24.0246 13.0813 24.0844L15.047 26.2365C15.104 26.2993 15.1735 26.3495 15.251 26.384C15.3285 26.4185 15.4123 26.4365 15.4971 26.4369C15.5822 26.437 15.6664 26.4196 15.7444 26.3857C15.8225 26.3519 15.8927 26.3022 15.9507 26.24L20.0088 21.8549C20.7243 22.8652 21.0798 24.0866 21.0181 25.3231C20.9564 26.5596 20.4812 27.7395 19.6687 28.6736C18.8561 29.6077 17.7534 30.2418 16.5374 30.4741C15.3213 30.7065 14.0625 30.5236 12.9628 29.9549C11.8632 29.3862 10.9864 28.4646 10.4732 27.338C9.95996 26.2113 9.84007 24.9449 10.1327 23.742C10.4254 22.5391 11.1136 21.4693 12.087 20.7043C13.0604 19.9393 14.2626 19.5235 15.5006 19.5235C15.8918 19.524 16.2819 19.5652 16.6646 19.6466C16.7449 19.6672 16.8286 19.6714 16.9106 19.6589C16.9926 19.6464 17.0712 19.6174 17.1417 19.5737C17.2122 19.53 17.2732 19.4726 17.3209 19.4047C17.3687 19.3369 17.4022 19.2601 17.4195 19.179C17.4368 19.0979 17.4376 19.0141 17.4217 18.9327C17.4058 18.8513 17.3736 18.7739 17.3271 18.7053C17.2805 18.6366 17.2206 18.5781 17.1509 18.5332C17.0811 18.4883 17.003 18.4579 16.9213 18.444C16.4589 18.3452 15.9875 18.2946 15.5147 18.2927C13.9989 18.2927 12.5271 18.8026 11.3361 19.7402C10.1451 20.6779 9.30403 21.9889 8.94824 23.4624C8.59245 24.9359 8.74259 26.4862 9.37451 27.864C10.0064 29.2418 11.0834 30.3671 12.4322 31.0588C13.781 31.7505 15.3233 31.9684 16.8109 31.6775C18.2986 31.3867 19.6452 30.6039 20.6341 29.4551C21.6231 28.3064 22.1969 26.8583 22.2634 25.344C22.3298 23.8296 21.885 22.3369 21.0004 21.1059C20.959 21.0492 20.9078 21.0004 20.8492 20.9618L22.9591 18.6936C23.014 18.6343 23.0568 18.5647 23.0848 18.4888C23.1129 18.413 23.1257 18.3324 23.1226 18.2515C23.1195 18.1707 23.1005 18.0913 23.0668 18.0178C23.033 17.9444 22.985 17.8782 22.9257 17.8233C22.8663 17.7683 22.7968 17.7256 22.7209 17.6976C22.6451 17.6695 22.5644 17.6566 22.4836 17.6597C22.4028 17.6628 22.3234 17.6818 22.2499 17.7156C22.1764 17.7494 22.1103 17.7974 22.0554 17.8567H22.0272Z" fill="white"/>
<path d="M12.9864 7.66242H19.1402C19.2223 7.66244 19.3034 7.64607 19.379 7.61427C19.4546 7.58246 19.5231 7.53587 19.5804 7.47723C19.6378 7.41859 19.6828 7.34908 19.7129 7.27279C19.743 7.19649 19.7575 7.11496 19.7556 7.03297V4.57143H21.8655L20.7473 5.6967C20.6321 5.81235 20.5676 5.96901 20.5679 6.13223C20.5682 6.29545 20.6334 6.45185 20.749 6.56703C20.8647 6.68221 21.0213 6.74673 21.1846 6.7464C21.3478 6.74608 21.5042 6.68092 21.6194 6.56527L23.7785 4.40615C23.8934 4.29082 23.9579 4.13466 23.9579 3.97187C23.9579 3.80908 23.8934 3.65292 23.7785 3.53758L21.6194 1.37846C21.5623 1.3212 21.4946 1.27573 21.42 1.24465C21.3454 1.21357 21.2654 1.19749 21.1846 1.19733C21.1037 1.19717 21.0237 1.21292 20.949 1.2437C20.8742 1.27448 20.8063 1.31967 20.749 1.3767C20.6918 1.43373 20.6463 1.50149 20.6152 1.57609C20.5841 1.65069 20.5681 1.73069 20.5679 1.8115C20.5677 1.89232 20.5835 1.97238 20.6143 2.04711C20.645 2.12184 20.6902 2.18977 20.7473 2.24703L21.8585 3.35472H19.7486V0.893187C19.7477 0.731798 19.6834 0.577226 19.5696 0.462776C19.4558 0.348327 19.3016 0.283161 19.1402 0.281319H12.9864C12.8232 0.281319 12.6667 0.346154 12.5513 0.461561C12.4358 0.576968 12.371 0.733493 12.371 0.896703V7.03297C12.3691 7.11496 12.3837 7.19649 12.4138 7.27279C12.4438 7.34908 12.4889 7.41859 12.5462 7.47723C12.6035 7.53587 12.672 7.58246 12.7476 7.61427C12.8232 7.64607 12.9044 7.66244 12.9864 7.66242ZM13.6018 1.51209H18.5249V3.35472H16.946C16.7827 3.35472 16.6262 3.41956 16.5108 3.53497C16.3954 3.65037 16.3306 3.8069 16.3306 3.97011C16.3306 4.13332 16.3954 4.28985 16.5108 4.40525C16.6262 4.52066 16.7827 4.58549 16.946 4.58549H18.5249V6.43165H13.6018V1.51209Z" fill="white"/>
<path d="M31.265 0.281319H25.1111C24.9479 0.281319 24.7914 0.346154 24.676 0.461561C24.5606 0.576968 24.4958 0.733493 24.4958 0.896703V7.03297C24.4958 7.19618 24.5606 7.3527 24.676 7.46811C24.7914 7.58352 24.9479 7.64835 25.1111 7.64835H27.5727V10.5494H15.4725C15.3093 10.5494 15.1527 10.6143 15.0373 10.7297C14.9219 10.8451 14.8571 11.0016 14.8571 11.1648V15.1209L13.7459 14.0132C13.6302 13.898 13.4736 13.8335 13.3103 13.8338C13.1471 13.8341 12.9907 13.8993 12.8755 14.0149C12.7604 14.1306 12.6958 14.2873 12.6962 14.4505C12.6965 14.6137 12.7617 14.7701 12.8773 14.8853L15.0364 17.0444C15.1518 17.1593 15.3079 17.2238 15.4707 17.2238C15.6335 17.2238 15.7897 17.1593 15.905 17.0444L18.0641 14.8853C18.1798 14.7701 18.2449 14.6137 18.2452 14.4505C18.2456 14.2873 18.181 14.1306 18.0659 14.0149C17.9507 13.8993 17.7943 13.8341 17.6311 13.8338C17.4679 13.8335 17.3112 13.898 17.1955 14.0132L16.0878 15.1209V11.7802H28.1881C28.3513 11.7802 28.5078 11.7154 28.6232 11.6C28.7386 11.4846 28.8035 11.328 28.8035 11.1648V7.64835H31.265C31.4282 7.64835 31.5847 7.58352 31.7001 7.46811C31.8155 7.3527 31.8804 7.19618 31.8804 7.03297V0.896703C31.8804 0.733493 31.8155 0.576968 31.7001 0.461561C31.5847 0.346154 31.4282 0.281319 31.265 0.281319ZM30.6496 6.43165H28.8035V4.40967C28.8035 4.24646 28.7386 4.08993 28.6232 3.97453C28.5078 3.85912 28.3513 3.79429 28.1881 3.79429C28.0249 3.79429 27.8683 3.85912 27.7529 3.97453C27.6375 4.08993 27.5727 4.24646 27.5727 4.40967V6.43165H25.7265V1.51209H30.6496V6.43165Z" fill="white"/>
<path d="M9.51908 6.56528L11.6782 4.40615C11.7359 4.34952 11.7818 4.28194 11.8131 4.20737C11.8444 4.13281 11.8605 4.05274 11.8605 3.97187C11.8605 3.89099 11.8444 3.81093 11.8131 3.73636C11.7818 3.66179 11.7359 3.59422 11.6782 3.53758L9.5226 1.37846C9.46557 1.3212 9.39782 1.27573 9.32322 1.24465C9.24861 1.21357 9.16862 1.19749 9.0878 1.19733C8.92458 1.197 8.76792 1.26152 8.65227 1.3767C8.53663 1.49188 8.47147 1.64829 8.47114 1.8115C8.47081 1.97472 8.53533 2.13139 8.65051 2.24703L9.75821 3.35473H7.63073V0.893187C7.62989 0.733587 7.56707 0.580559 7.45553 0.466399C7.34399 0.352238 7.19247 0.285876 7.03293 0.281319H0.865018C0.701808 0.281319 0.545283 0.346154 0.429876 0.461561C0.314469 0.576968 0.249634 0.733493 0.249634 0.896703V7.03297C0.249634 7.19618 0.314469 7.3527 0.429876 7.46811C0.545283 7.58352 0.701808 7.64835 0.865018 7.64835H7.03293C7.19307 7.64377 7.34512 7.57692 7.45675 7.46201C7.56838 7.3471 7.6308 7.19318 7.63073 7.03297V4.57143H9.75821L8.65051 5.6967C8.56286 5.78258 8.50288 5.89269 8.47828 6.01291C8.45368 6.13313 8.46558 6.25795 8.51245 6.37136C8.55932 6.48476 8.63903 6.58156 8.74133 6.64933C8.84363 6.71709 8.96385 6.75272 9.08656 6.75165C9.16742 6.75089 9.24732 6.73402 9.32159 6.70202C9.39585 6.67002 9.463 6.62353 9.51908 6.56528ZM6.39996 6.43165H1.47689V1.51209H6.39996V3.35473H4.29007C4.12686 3.35473 3.97034 3.41956 3.85493 3.53497C3.73952 3.65037 3.67469 3.8069 3.67469 3.97011C3.67469 4.13332 3.73952 4.28985 3.85493 4.40525C3.97034 4.52066 4.12686 4.58549 4.29007 4.58549H6.39996V6.43165Z" fill="white"/>
</g>
<defs>
<clipPath id="clip0_2_53">
<rect width="32" height="32" fill="white"/>
</clipPath>
</defs>
</svg>
