<svg width="39" height="40" viewBox="0 0 39 40" fill="none" xmlns="http://www.w3.org/2000/svg">
<path d="M33.0417 19.4444H32.2598C31.9689 18.0449 31.4009 16.7215 30.5909 15.5564C30.5078 15.4362 30.3816 15.3549 30.24 15.3302C30.0983 15.3055 29.953 15.3395 29.8358 15.4248C29.7187 15.5101 29.6394 15.6395 29.6153 15.7848C29.5913 15.93 29.6244 16.0791 29.7076 16.1993C30.5126 17.3577 31.0496 18.6891 31.2778 20.0922C31.2991 20.2217 31.3645 20.3393 31.4623 20.4242C31.5601 20.509 31.684 20.5555 31.8121 20.5556H33.0417C33.1853 20.5557 33.3229 20.6143 33.4245 20.7185C33.526 20.8226 33.5831 20.9638 33.5833 21.1111V22.2222C33.5831 22.3695 33.526 22.5107 33.4245 22.6148C33.3229 22.719 33.1853 22.7776 33.0417 22.7778H31.8121C31.684 22.7778 31.5601 22.8244 31.4623 22.9092C31.3645 22.994 31.2991 23.1116 31.2778 23.2411C31.0496 24.6443 30.5126 25.9756 29.7076 27.1341C29.6335 27.2411 29.5988 27.3715 29.6096 27.5022C29.6203 27.6329 29.6758 27.7555 29.7663 27.8483L30.6327 28.7375C30.734 28.842 30.7909 28.9834 30.7909 29.1307C30.7909 29.2781 30.734 29.4195 30.6327 29.5239L29.8692 30.3071C29.7657 30.4079 29.6284 30.4641 29.4857 30.4641C29.3429 30.4641 29.2057 30.4079 29.1022 30.3071L28.2355 29.4184C28.145 29.3256 28.0255 29.2686 27.898 29.2576C27.7705 29.2465 27.6434 29.2822 27.5391 29.3582C26.4096 30.1838 25.1115 30.7346 23.7434 30.9687C23.6171 30.9906 23.5025 31.0576 23.4198 31.1579C23.3371 31.2582 23.2917 31.3853 23.2917 31.5167V32.7778C23.2915 32.9251 23.2344 33.0663 23.1328 33.1704C23.0313 33.2745 22.8936 33.3331 22.75 33.3333H21.6667C21.5231 33.3331 21.3854 33.2745 21.2839 33.1704C21.1823 33.0663 21.1252 32.9251 21.125 32.7778V31.5167C21.125 31.3853 21.0796 31.2582 20.9969 31.1579C20.9142 31.0576 20.7995 30.9906 20.6733 30.9687C19.3052 30.7346 18.0071 30.1838 16.8776 29.3582C16.7733 29.2822 16.6462 29.2466 16.5187 29.2576C16.3912 29.2686 16.2716 29.3256 16.1812 29.4184L15.3142 30.3071C15.2108 30.4079 15.0736 30.4642 14.9309 30.4642C14.7882 30.4642 14.6509 30.4079 14.5475 30.3071L13.7839 29.5239C13.6826 29.4194 13.6258 29.278 13.6258 29.1306C13.6258 28.9832 13.6826 28.8418 13.7839 28.7373L14.6504 27.8483C14.7408 27.7556 14.7963 27.6329 14.8071 27.5022C14.8178 27.3715 14.7831 27.2411 14.7091 27.1341C13.9041 25.9756 13.3671 24.6443 13.1389 23.2411C13.1175 23.1116 13.0522 22.994 12.9544 22.9092C12.8566 22.8244 12.7327 22.7778 12.6046 22.7778H11.375C11.2314 22.7776 11.0937 22.719 10.9922 22.6148C10.8906 22.5107 10.8335 22.3695 10.8333 22.2222V21.1111C10.8335 20.9638 10.8906 20.8226 10.9922 20.7185C11.0937 20.6143 11.2314 20.5557 11.375 20.5556H12.6046C12.7327 20.5555 12.8566 20.509 12.9544 20.4242C13.0522 20.3393 13.1175 20.2217 13.1388 20.0922C13.3671 18.6891 13.9041 17.3577 14.7091 16.1993C14.7831 16.0923 14.8178 15.9619 14.8071 15.8311C14.7963 15.7004 14.7408 15.5778 14.6504 15.485L13.7839 14.5958C13.6826 14.4913 13.6258 14.3499 13.6258 14.2026C13.6258 14.0552 13.6826 13.9139 13.7839 13.8094L14.5475 13.0263C14.651 12.9254 14.7883 12.8692 14.931 12.8692C15.0737 12.8692 15.211 12.9254 15.3145 13.0263L16.1812 13.9149C16.2716 14.0078 16.3912 14.0648 16.5187 14.0759C16.6462 14.0869 16.7733 14.0512 16.8776 13.9751C18.0071 13.1495 19.3052 12.5987 20.6733 12.3646C20.7995 12.3428 20.9142 12.2757 20.9969 12.1754C21.0796 12.0751 21.125 11.948 21.125 11.8167V10.5556C21.1252 10.4083 21.1823 10.2671 21.2839 10.1629C21.3854 10.0588 21.5231 10.0002 21.6667 10H22.75C22.8936 10.0002 23.0313 10.0588 23.1328 10.1629C23.2344 10.2671 23.2915 10.4083 23.2917 10.5556V11.8167C23.2917 11.948 23.3371 12.0751 23.4198 12.1754C23.5025 12.2757 23.6171 12.3428 23.7434 12.3646C25.1115 12.5987 26.4096 13.1495 27.5391 13.9751C27.5971 14.0174 27.6626 14.0474 27.7319 14.0637C27.8013 14.0799 27.8731 14.082 27.9432 14.0698C28.0133 14.0575 28.0804 14.0313 28.1406 13.9925C28.2008 13.9537 28.253 13.9031 28.2942 13.8436C28.3353 13.7841 28.3647 13.7169 28.3805 13.6457C28.3963 13.5746 28.3983 13.501 28.3864 13.4291C28.3745 13.3572 28.3489 13.2884 28.3111 13.2266C28.2732 13.1648 28.2239 13.1113 28.1659 13.0691C27.0298 12.2384 25.7396 11.6558 24.375 11.3574V10.5556C24.3745 10.1137 24.2032 9.69003 23.8985 9.37758C23.5939 9.06512 23.1808 8.88937 22.75 8.88889H21.6667C21.2358 8.88937 20.8228 9.06512 20.5181 9.37758C20.2135 9.69003 20.0421 10.1137 20.0417 10.5556V11.3574C18.8282 11.6225 17.6722 12.113 16.6309 12.8049L16.0807 12.2407C15.7711 11.9379 15.3598 11.7689 14.932 11.7687C14.5042 11.7685 14.0928 11.9371 13.7829 12.2396L10.527 8.90019C10.7257 8.56113 10.8315 8.17337 10.8333 7.77778C10.8333 7.18841 10.6051 6.62318 10.1987 6.20643C9.7924 5.78968 9.2413 5.55556 8.66667 5.55556C8.09203 5.55556 7.54093 5.78968 7.1346 6.20643C6.72827 6.62318 6.5 7.18841 6.5 7.77778C6.5018 8.17338 6.60763 8.56115 6.80634 8.90022L4.88605 10.8698C4.55545 10.6659 4.17738 10.5574 3.79167 10.5556C3.36314 10.5556 2.94424 10.6859 2.58793 10.9301C2.23163 11.1742 1.95392 11.5213 1.78993 11.9274C1.62594 12.3334 1.58303 12.7802 1.66663 13.2113C1.75023 13.6424 1.95659 14.0383 2.2596 14.3491C2.56262 14.6599 2.94868 14.8716 3.36897 14.9573C3.78926 15.043 4.22491 14.999 4.62082 14.8308C5.01672 14.6626 5.35511 14.3778 5.59319 14.0124C5.83126 13.6469 5.95833 13.2173 5.95833 12.7778C5.95653 12.3822 5.8507 11.9944 5.652 11.6553L7.57229 9.68581C7.90216 9.89132 8.28071 10 8.66667 10C9.05263 10 9.43118 9.89132 9.76105 9.68581L13.0169 13.0252C12.7129 13.3381 12.5422 13.7619 12.5424 14.2037C12.5426 14.6454 12.7137 15.0691 13.018 15.3817L13.5681 15.9462C12.8936 17.0142 12.4152 18.1998 12.1568 19.4444H11.375C10.9442 19.4449 10.5311 19.6207 10.2265 19.9331C9.92183 20.2456 9.75047 20.6692 9.75 21.1111V22.2222C9.75047 22.6641 9.92183 23.0877 10.2265 23.4002C10.5311 23.7127 10.9442 23.8884 11.375 23.8889H12.1568C12.4152 25.1335 12.8935 26.3191 13.5681 27.3872L13.018 27.9514C12.7135 28.2643 12.5424 28.6883 12.5424 29.1305C12.5424 29.5726 12.7135 29.9966 13.018 30.3095L13.7816 31.0927C14.0913 31.3956 14.503 31.5647 14.931 31.5647C15.3591 31.5647 15.7707 31.3956 16.0805 31.0927L16.6309 30.5284C17.6722 31.2203 18.8282 31.7109 20.0417 31.9759V32.7778C20.0421 33.2197 20.2135 33.6433 20.5181 33.9558C20.8228 34.2682 21.2358 34.444 21.6667 34.4444H22.75C23.1808 34.444 23.5939 34.2682 23.8985 33.9558C24.2032 33.6433 24.3745 33.2197 24.375 32.7778V31.9759C25.5885 31.7109 26.7445 31.2203 27.7858 30.5284L28.3359 31.0927C28.6458 31.3956 29.0574 31.5647 29.4855 31.5647C29.9136 31.5647 30.3253 31.3956 30.6351 31.0927L31.3987 30.3095C31.7032 29.9967 31.8742 29.5727 31.8742 29.1306C31.8742 28.6885 31.7032 28.2645 31.3987 27.9517L30.8486 27.3872C31.5231 26.3191 32.0014 25.1335 32.2598 23.8889H33.0417C33.4725 23.8884 33.8856 23.7127 34.1902 23.4002C34.4948 23.0877 34.6662 22.6641 34.6667 22.2222V21.1111C34.6662 20.6692 34.4948 20.2456 34.1902 19.9331C33.8856 19.6207 33.4725 19.4449 33.0417 19.4444ZM3.79167 13.8889C3.57765 13.8887 3.36848 13.8235 3.1906 13.7014C3.01272 13.5794 2.87411 13.406 2.79229 13.2031C2.71047 13.0003 2.6891 12.7771 2.7309 12.5619C2.77269 12.3466 2.87577 12.1488 3.02711 11.9936C3.17844 11.8384 3.37124 11.7327 3.58114 11.6898C3.79104 11.6469 4.00861 11.6689 4.20638 11.7528C4.40414 11.8367 4.5732 11.9789 4.69221 12.1613C4.81122 12.3437 4.87483 12.5583 4.875 12.7778C4.87471 13.0724 4.76049 13.3548 4.55738 13.5631C4.35428 13.7714 4.0789 13.8886 3.79167 13.8889ZM7.90124 8.56283C7.74957 8.40751 7.64622 8.20953 7.60428 7.99395C7.56234 7.77836 7.58369 7.55487 7.66563 7.35173C7.74758 7.1486 7.88643 6.97497 8.06462 6.8528C8.24281 6.73063 8.45233 6.66542 8.66667 6.66542C8.881 6.66542 9.09052 6.73063 9.26871 6.8528C9.44691 6.97497 9.58576 7.1486 9.6677 7.35173C9.74965 7.55487 9.771 7.77836 9.72906 7.99395C9.68712 8.20953 9.58377 8.40751 9.43209 8.56283C9.22612 8.7652 8.9519 8.87817 8.66667 8.87817C8.38143 8.87817 8.10722 8.7652 7.90124 8.56283Z" fill="white"/>
<path d="M22.2083 14.4444C23.5543 14.4427 24.8723 14.8383 26.005 15.584C26.1259 15.6627 26.2722 15.6891 26.412 15.6575C26.5518 15.6259 26.6736 15.5388 26.751 15.4153C26.8284 15.2918 26.855 15.1419 26.8249 14.9983C26.7948 14.8548 26.7106 14.7293 26.5906 14.6492C24.9036 13.541 22.8768 13.1112 20.8996 13.4422C18.9224 13.7732 17.1342 14.8418 15.8783 16.4427C14.6225 18.0436 13.9876 20.0639 14.0956 22.1157C14.2036 24.1674 15.0468 26.1059 16.4634 27.5589C17.88 29.0118 19.7701 29.8767 21.7705 29.9874C23.771 30.0982 25.7408 29.447 27.3017 28.159C28.8626 26.8709 29.9045 25.0368 30.2272 23.0089C30.5499 20.981 30.1308 18.9023 29.0503 17.172C28.9723 17.0489 28.8499 16.9626 28.71 16.9317C28.57 16.9009 28.4238 16.9281 28.3034 17.0075C28.183 17.0868 28.0981 17.2119 28.0672 17.3552C28.0364 17.4986 28.0622 17.6487 28.1389 17.7726C28.9821 19.1235 29.3629 20.7239 29.2212 22.3214C29.0794 23.9188 28.4232 25.4224 27.356 26.595C26.2888 27.7676 24.8714 28.5424 23.3273 28.7973C21.7832 29.0522 20.2003 28.7726 18.8283 28.0026C17.4563 27.2327 16.3733 26.0162 15.75 24.545C15.1267 23.0738 14.9987 21.4317 15.3861 19.8776C15.7736 18.3236 16.6544 16.946 17.8897 15.9622C19.1249 14.9785 20.6444 14.4445 22.2083 14.4444Z" fill="white"/>
<path d="M35.2083 6.11111C34.6339 6.11178 34.0832 6.34613 33.677 6.76273C33.2708 7.17933 33.0423 7.74417 33.0416 8.33333C33.0434 8.72893 33.1493 9.1167 33.348 9.45577L23.298 19.7635C22.884 19.5237 22.4059 19.4265 21.934 19.4864C21.4621 19.5463 21.0215 19.76 20.6769 20.096C20.3862 20.3893 20.1818 20.7605 20.087 21.1673C19.9922 21.5741 20.0109 22 20.1409 22.3964C20.2709 22.7928 20.507 23.1437 20.8222 23.409C21.1374 23.6743 21.5191 23.8434 21.9235 23.8968C22.3279 23.9502 22.7388 23.8859 23.1093 23.7112C23.4798 23.5365 23.7949 23.2585 24.0187 22.9088C24.2424 22.5592 24.3657 22.152 24.3745 21.7339C24.3834 21.3157 24.2774 20.9035 24.0686 20.5442L34.1139 10.2414C34.4445 10.4452 34.8226 10.5537 35.2083 10.5556C35.7829 10.5556 36.334 10.3214 36.7404 9.90468C37.1467 9.48793 37.375 8.9227 37.375 8.33333C37.375 7.74396 37.1467 7.17873 36.7404 6.76198C36.334 6.34524 35.7829 6.11111 35.2083 6.11111ZM22.2083 22.7778C21.9943 22.7776 21.7851 22.7124 21.6072 22.5903C21.4294 22.4682 21.2908 22.2948 21.2089 22.092C21.1271 21.8892 21.1057 21.666 21.1475 21.4507C21.1893 21.2355 21.2924 21.0377 21.4437 20.8825C21.5951 20.7273 21.7879 20.6216 21.9978 20.5787C22.2077 20.5358 22.4253 20.5577 22.623 20.6417C22.8208 20.7256 22.9898 20.8678 23.1089 21.0502C23.2279 21.2326 23.2915 21.4472 23.2916 21.6667C23.2914 21.9613 23.1771 22.2437 22.974 22.452C22.7709 22.6603 22.4955 22.7775 22.2083 22.7778ZM35.2083 9.44444C34.994 9.44444 34.7846 9.37928 34.6064 9.25719C34.4283 9.1351 34.2894 8.96157 34.2074 8.75854C34.1254 8.55551 34.104 8.3321 34.1458 8.11657C34.1876 7.90103 34.2908 7.70305 34.4423 7.54766C34.5938 7.39227 34.7868 7.28644 34.997 7.24357C35.2071 7.2007 35.4249 7.2227 35.6229 7.3068C35.8208 7.3909 35.99 7.53331 36.1091 7.71603C36.2281 7.89875 36.2916 8.11358 36.2916 8.33333C36.2926 8.47953 36.2653 8.62446 36.2112 8.75972C36.1571 8.89498 36.0773 9.01787 35.9765 9.12124C35.8757 9.22462 35.7559 9.30643 35.624 9.36191C35.4922 9.41739 35.3508 9.44545 35.2083 9.44444Z" fill="white"/>
</svg>
